# xmcd CD database file generated by Grip 3.2.0
# 
# Track frame offsets:
#       150
#       66365
#       95388
#       119140
#       149863
#       167573
#       193685
#       218663
#       264048
# 
# Disc length: 3943 seconds
# 
# Revision: 2
# Processed by: cddbd v1.5.1PL0 Copyright (c) Steve Scherf et al.
# Submitted via: Grip 3.2.0
# 
DISCID=890f6509
DTITLE=Majida El Roumi - Ebhas A'nni
DYEAR=1994
DGENRE=Ethnic
TTITLE0=Ma Jareeda
TTITLE1=Lan Aou'd
TTITLE2=Ghannou Ma'i
TTITLE3=Saqata El Kina'
TTITLE4=Mararta Fi Khayali
TTITLE5=Ya Mkahel Remshak
TTITLE6=Ebhas A'nni
TTITLE7=Kon Sadiqui
TTITLE8=Qoum Thadda
EXTD=
EXTT0=
EXTT1=
EXTT2=
EXTT3=
EXTT4=
EXTT5=
EXTT6=
EXTT7=
EXTT8=
PLAYORDER=
